<svg width="326" height="358" viewBox="0 0 326 358" fill="none" xmlns="http://www.w3.org/2000/svg">
<mask id="mask0_24_13" style="mask-type:alpha" maskUnits="userSpaceOnUse" x="0" y="183" width="326" height="175">
<rect y="183" width="326" height="175" fill="#FF2768"/>
</mask>
<g mask="url(#mask0_24_13)">
<rect x="1" y="208" width="10" height="10" fill="#FF2768"/>
<rect x="36" y="208" width="10" height="10" fill="#FF2768"/>
<rect x="71" y="208" width="10" height="10" fill="#FF2768"/>
<rect x="106" y="208" width="10" height="10" fill="#FF2768"/>
<rect x="141" y="208" width="10" height="10" fill="#FF2768"/>
<rect x="176" y="208" width="10" height="10" fill="#FF2768"/>
<rect x="211" y="208" width="10" height="10" fill="#FF2768"/>
<rect x="246" y="208" width="10" height="10" fill="#FF2768"/>
<rect x="281" y="208" width="10" height="10" fill="#FF2768"/>
<rect x="316" y="208" width="10" height="10" fill="#FF2768"/>
<rect x="1" y="243" width="10" height="10" fill="#FF2768"/>
<rect x="36" y="243" width="10" height="10" fill="#FF2768"/>
<rect x="71" y="243" width="10" height="10" fill="#FF2768"/>
<rect x="106" y="243" width="10" height="10" fill="#FF2768"/>
<rect x="141" y="243" width="10" height="10" fill="#FF2768"/>
<rect x="176" y="243" width="10" height="10" fill="#FF2768"/>
<rect x="211" y="243" width="10" height="10" fill="#FF2768"/>
<rect x="246" y="243" width="10" height="10" fill="#FF2768"/>
<rect x="281" y="243" width="10" height="10" fill="#FF2768"/>
<rect x="316" y="243" width="10" height="10" fill="#FF2768"/>
<rect x="1" y="278" width="10" height="10" fill="#FF2768"/>
<rect x="36" y="278" width="10" height="10" fill="#FF2768"/>
<rect x="106" y="278" width="10" height="10" fill="#FF2768"/>
<rect x="141" y="278" width="10" height="10" fill="#FF2768"/>
<rect x="176" y="278" width="10" height="10" fill="#FF2768"/>
<rect x="211" y="278" width="10" height="10" fill="#FF2768"/>
<rect x="246" y="278" width="10" height="10" fill="#FF2768"/>
<rect x="281" y="278" width="10" height="10" fill="#FF2768"/>
<rect x="316" y="278" width="10" height="10" fill="#FF2768"/>
<rect x="1" y="313" width="10" height="10" fill="#FF2768"/>
<rect x="36" y="313" width="10" height="10" fill="#FF2768"/>
<rect x="71" y="313" width="10" height="10" fill="#FF2768"/>
<rect x="106" y="313" width="10" height="10" fill="#FF2768"/>
<rect x="141" y="313" width="10" height="10" fill="#FF2768"/>
<rect x="176" y="313" width="10" height="10" fill="#FF2768"/>
<rect x="211" y="313" width="10" height="10" fill="#FF2768"/>
<rect x="246" y="313" width="10" height="10" fill="#FF2768"/>
<rect x="281" y="313" width="10" height="10" fill="#FF2768"/>
<rect x="316" y="313" width="10" height="10" fill="#FF2768"/>
<rect x="1" y="348" width="10" height="10" fill="#FF2768"/>
<rect x="36" y="348" width="10" height="10" fill="#FF2768"/>
<rect x="71" y="348" width="10" height="10" fill="#FF2768"/>
<rect x="106" y="348" width="10" height="10" fill="#FF2768"/>
<rect x="141" y="348" width="10" height="10" fill="#FF2768"/>
<rect x="176" y="348" width="10" height="10" fill="#FF2768"/>
<rect x="211" y="348" width="10" height="10" fill="#FF2768"/>
<rect x="246" y="348" width="10" height="10" fill="#FF2768"/>
<rect x="281" y="348" width="10" height="10" fill="#FF2768"/>
<rect x="316" y="348" width="10" height="10" fill="#FF2768"/>
</g>
<mask id="mask1_24_13" style="mask-type:alpha" maskUnits="userSpaceOnUse" x="0" y="0" width="326" height="153">
<rect width="326" height="153" fill="white"/>
</mask>
<g mask="url(#mask1_24_13)">
<g opacity="0.46">
<rect x="1" y="3" width="10" height="10" fill="white"/>
<rect x="36" y="3" width="10" height="10" fill="white"/>
<rect x="71" y="3" width="10" height="10" fill="white"/>
<rect x="106" y="3" width="10" height="10" fill="white"/>
<rect x="141" y="3" width="10" height="10" fill="white"/>
<rect x="176" y="3" width="10" height="10" fill="white"/>
<rect x="211" y="3" width="10" height="10" fill="white"/>
<rect x="246" y="3" width="10" height="10" fill="white"/>
<rect x="281" y="3" width="10" height="10" fill="white"/>
<rect x="316" y="3" width="10" height="10" fill="white"/>
<rect x="1" y="38" width="10" height="10" fill="white"/>
<rect x="36" y="38" width="10" height="10" fill="white"/>
<rect x="71" y="38" width="10" height="10" fill="white"/>
<rect x="106" y="38" width="10" height="10" fill="white"/>
<rect x="141" y="38" width="10" height="10" fill="white"/>
<rect x="176" y="38" width="10" height="10" fill="white"/>
<rect x="211" y="38" width="10" height="10" fill="white"/>
<rect x="246" y="38" width="10" height="10" fill="white"/>
<rect x="281" y="38" width="10" height="10" fill="white"/>
<rect x="316" y="38" width="10" height="10" fill="white"/>
<rect x="1" y="73" width="10" height="10" fill="white"/>
<rect x="36" y="73" width="10" height="10" fill="white"/>
<rect x="71" y="73" width="10" height="10" fill="white"/>
<rect x="106" y="73" width="10" height="10" fill="white"/>
<rect x="141" y="73" width="10" height="10" fill="white"/>
<rect x="176" y="73" width="10" height="10" fill="white"/>
<rect x="211" y="73" width="10" height="10" fill="white"/>
<rect x="246" y="73" width="10" height="10" fill="white"/>
<rect x="281" y="73" width="10" height="10" fill="white"/>
<rect x="316" y="73" width="10" height="10" fill="white"/>
<rect x="1" y="108" width="10" height="10" fill="white"/>
<rect x="36" y="108" width="10" height="10" fill="white"/>
<rect x="71" y="108" width="10" height="10" fill="white"/>
<rect x="106" y="108" width="10" height="10" fill="white"/>
<rect x="141" y="108" width="10" height="10" fill="white"/>
<rect x="176" y="108" width="10" height="10" fill="white"/>
<rect x="211" y="108" width="10" height="10" fill="white"/>
<rect x="246" y="108" width="10" height="10" fill="white"/>
<rect x="281" y="108" width="10" height="10" fill="white"/>
<rect x="316" y="108" width="10" height="10" fill="white"/>
<rect x="1" y="143" width="10" height="10" fill="white"/>
<rect x="36" y="143" width="10" height="10" fill="white"/>
<rect x="71" y="143" width="10" height="10" fill="white"/>
<rect x="106" y="143" width="10" height="10" fill="white"/>
<rect x="141" y="143" width="10" height="10" fill="white"/>
<rect x="176" y="143" width="10" height="10" fill="white"/>
<rect x="211" y="143" width="10" height="10" fill="white"/>
<rect x="246" y="143" width="10" height="10" fill="white"/>
<rect x="281" y="143" width="10" height="10" fill="white"/>
<rect x="316" y="143" width="10" height="10" fill="white"/>
</g>
</g>
</svg>
